<svg height="480pt" viewBox="0 0 480 480" width="480pt" xmlns="http://www.w3.org/2000/svg"><path d="m472 168h-92.449219c2.878907-4.84375 4.417969-10.367188 4.449219-16v-32c0-3.03125-1.710938-5.804688-4.425781-7.160156l-8.839844-4.414063 12.464844-24.851562c1.242187-2.484375 1.105469-5.4375-.363281-7.800781-1.46875-2.359376-4.054688-3.789063-6.835938-3.773438h-24v-9.472656c.777344-.269532 1.539062-.582032 2.28125-.933594l6.6875 6.695312c3.125 3.125 8.191406 3.125 11.320312 0 3.125-3.128906 3.125-8.195312 0-11.320312l-6.6875-6.6875c.351563-.742188.660157-1.503906.925782-2.28125h9.472656c4.417969 0 8-3.582031 8-8s-3.582031-8-8-8h-9.472656c-.269532-.777344-.582032-1.539062-.933594-2.28125l6.695312-6.6875c3.125-3.125 3.125-8.191406 0-11.320312-3.128906-3.125-8.195312-3.125-11.320312 0l-6.6875 6.695312c-.742188-.351562-1.503906-.664062-2.28125-.933594v-9.472656c0-4.417969-3.582031-8-8-8s-8 3.582031-8 8v9.472656c-.777344.269532-1.539062.582032-2.28125.933594l-6.6875-6.695312c-3.125-3.125-8.191406-3.125-11.320312 0-3.125 3.128906-3.125 8.195312 0 11.320312l6.695312 6.6875c-.351562.742188-.664062 1.503906-.933594 2.28125h-9.472656c-4.417969 0-8 3.582031-8 8s3.582031 8 8 8h9.472656c.269532.777344.582032 1.539062.933594 2.28125l-6.695312 6.6875c-3.125 3.125-3.125 8.191406 0 11.320312 3.128906 3.125 8.195312 3.125 11.320312 0l6.6875-6.695312c.742188.351562 1.503906.664062 2.28125.933594v9.472656h-24c-2.78125-.015625-5.367188 1.414062-6.835938 3.773438-1.46875 2.363281-1.605468 5.316406-.363281 7.800781l12.421875 24.851562-8.839844 4.414063c-2.695312 1.367187-4.390624 4.136718-4.382812 7.160156v32c.03125 5.632812 1.570312 11.15625 4.449219 16h-86.59375l1.855469-1.070312c3.828124-2.210938 5.136718-7.101563 2.929687-10.929688l-60-103.921875c-2.210937-3.824219-7.101563-5.136719-10.929687-2.925781l-19.710938 11.375v-4.527344c0-4.417969-3.582031-8-8-8h-96c-4.417969 0-8 3.582031-8 8v112h-16c-4.417969 0-8 3.582031-8 8v296c0 4.417969 3.582031 8 8 8h24c2.808594 0 5.410156-1.472656 6.855469-3.878906l21.671875-36.121094h358.945312l21.671875 36.121094c1.445313 2.40625 4.046875 3.878906 6.855469 3.878906h24c4.417969 0 8-3.582031 8-8v-296c0-4.417969-3.582031-8-8-8zm-120-128c0 4.417969-3.582031 8-8 8s-8-3.582031-8-8 3.582031-8 8-8 8 3.582031 8 8zm-32 112v-27.054688l11.574219-5.785156c3.957031-1.972656 5.5625-6.78125 3.585937-10.734375l-10.214844-20.425781h38.109376l-10.214844 20.425781c-1.976563 3.953125-.371094 8.761719 3.585937 10.734375l11.574219 5.785156v27.054688c0 8.835938-7.164062 16-16 16h-16c-8.835938 0-16-7.164062-16-16zm-163.199219-84.992188 52 90.0625-13.855469 8-52-90.0625zm21.34375 100.992188h-42.144531v-72.992188zm-58.144531 0h-16v-104h16zm-32 0h-16v-104h16zm-48-104h16v104h-16zm-24 120h448v240h-448zm11.472656 280h-11.472656v-24h25.863281zm436.527344 0h-11.472656l-14.398438-24h25.871094zm0 0"/><path d="m456 408v-208c0-4.417969-3.582031-8-8-8h-416c-4.417969 0-8 3.582031-8 8v208c0 4.417969 3.582031 8 8 8h416c4.417969 0 8-3.582031 8-8zm-416-200h192v192h-192zm400 192h-192v-192h192zm0 0"/><path d="m192 280c-13.253906 0-24 10.746094-24 24s10.746094 24 24 24 24-10.746094 24-24-10.746094-24-24-24zm0 32c-4.417969 0-8-3.582031-8-8s3.582031-8 8-8 8 3.582031 8 8-3.582031 8-8 8zm0 0"/><path d="m288 328c13.253906 0 24-10.746094 24-24s-10.746094-24-24-24-24 10.746094-24 24 10.746094 24 24 24zm0-32c4.417969 0 8 3.582031 8 8s-3.582031 8-8 8-8-3.582031-8-8 3.582031-8 8-8zm0 0"/></svg>