<svg height="512" viewBox="0 0 64 64" width="512" xmlns="http://www.w3.org/2000/svg"><g id="Desk_Lamp" data-name="Desk Lamp"><path d="m61 30h-4v-4h1a1 1 0 0 0 1-1v-6a1 1 0 0 0 -1-1h-1.184a2.966 2.966 0 0 0 .184-1v-2a3 3 0 0 0 -3-3h-14a1 1 0 0 0 -1 1v6a1 1 0 0 0 1 1h1.184a2.966 2.966 0 0 0 -.184 1v2a2.984 2.984 0 0 0 .22 1.116 3 3 0 0 0 -2.22 2.884v2a2.966 2.966 0 0 0 .184 1h-21.184v-3a1 1 0 0 0 -1-1h-1v-1a3 3 0 0 0 -3-3 2.933 2.933 0 0 0 -.847.137l-4.682-6.437a2.968 2.968 0 0 0 .306-2.82l6.277-5.58 1 1a3 3 0 0 0 0 4.243l2.829 2.828a1 1 0 0 0 1.414 0l.703-.714a4 4 0 0 0 5.657-5.657l.707-.707a1 1 0 0 0 0-1.414l-2.828-2.829a3 3 0 0 0 -4.243 0l-2.122-2.121a1 1 0 0 0 -1.414 0l-2.828 2.828a1 1 0 0 0 -.224 1.061l-6.264 5.567a2.958 2.958 0 0 0 -1.441-.385 3 3 0 0 0 0 6 2.933 2.933 0 0 0 .847-.137l4.682 6.442a2.973 2.973 0 0 0 -.529 1.695v1h-1a1 1 0 0 0 -1 1v3h-5a1 1 0 0 0 -1 1v6a1 1 0 0 0 1 1h1v23a1 1 0 0 0 1 1h4a1 1 0 0 0 1-1v-11h44v11a1 1 0 0 0 1 1h4a1 1 0 0 0 1-1v-23h1a1 1 0 0 0 1-1v-6a1 1 0 0 0 -1-1zm-20-16h13a1 1 0 0 1 1 1v2a1 1 0 0 1 -1 1h-13zm13 6h3v4h-13a1 1 0 0 1 -1-1v-2a1 1 0 0 1 1-1zm-13 9v-2a1 1 0 0 1 1-1h13v4h-13a1 1 0 0 1 -1-1zm-16.757-15.757a2 2 0 0 1 -2.829 0l2.829-2.829a2 2 0 0 1 0 2.829zm-2.828-8.071a1 1 0 0 1 .707.292l2.121 2.122-5.657 5.657-2.122-2.121a1 1 0 0 1 0-1.415l4.243-4.243a1 1 0 0 1 .708-.292zm-4.951-1.122 1.415 1.414-1.415 1.415-1.414-1.415zm-12.464 9.95a1 1 0 1 1 1 1 1 1 0 0 1 -1-1zm8 11a1 1 0 0 1 2 0v1h-2zm-2 3h6v2h-6zm-4 32v-22h2v22zm4-12v-10h44v10zm48 12h-2v-22h2zm2-24h-56v-4h56z"/><path d="m43 15h10v2h-10z"/><path d="m45 21h10v2h-10z"/><path d="m43 27h10v2h-10z"/></g></svg>