<?xml version="1.0" encoding="iso-8859-1"?>
<!-- Generator: Adobe Illustrator 19.0.0, SVG Export Plug-In . SVG Version: 6.00 Build 0)  -->
<svg version="1.1" id="Capa_1" xmlns="http://www.w3.org/2000/svg" xmlns:xlink="http://www.w3.org/1999/xlink" x="0px" y="0px"
	 viewBox="0 0 512.009 512.009" style="enable-background:new 0 0 512.009 512.009;" xml:space="preserve">
<g>
	<g>
		<path d="M506.109,278.382l-31.854-15.943l35.958-53.956c2.188-3.272,2.396-7.482,0.521-10.962
			c-1.854-3.46-5.458-5.627-9.396-5.627h-53.333v-32.011c0-3.293-1.521-6.398-4.104-8.42c-2.583-2.021-5.938-2.73-9.146-1.938
			l-69.563,17.402L383.859,54.93c0.625-3.689-0.75-7.44-3.583-9.858c-2.854-2.459-6.771-3.168-10.313-2.022l-57.083,19.048
			L264.192,3.662c-4.042-4.877-12.333-4.877-16.375,0l-48.688,58.437l-57.083-19.048c-3.563-1.146-7.458-0.438-10.313,2.022
			c-2.833,2.417-4.208,6.169-3.583,9.858l18.667,111.997l-69.562-17.402c-3.208-0.771-6.542-0.063-9.146,1.938
			c-2.583,2.022-4.104,5.127-4.104,8.42v32.011H10.671c-3.938,0-7.542,2.167-9.396,5.627c-1.875,3.48-1.667,7.69,0.521,10.962
			l35.958,53.956L5.9,278.382c-3.604,1.813-5.896,5.502-5.896,9.545c0,4.043,2.292,7.732,5.896,9.545l120.354,60.188l-19.271,77.068
			c-1,3.981,0.396,8.19,3.542,10.795c3.188,2.647,7.542,3.23,11.292,1.48l123.521-57.034v111.365c0,5.898,4.771,10.67,10.667,10.67
			c5.896,0,10.667-4.772,10.667-10.67V389.969l123.521,57.034c1.438,0.667,2.958,0.98,4.479,0.98c2.438,0,4.854-0.834,6.813-2.459
			c3.146-2.605,4.542-6.815,3.542-10.795l-19.271-77.068l120.354-60.188c3.604-1.813,5.896-5.502,5.896-9.545
			C512.004,283.884,509.713,280.195,506.109,278.382z M368.567,342.463c-4.479,2.229-6.792,7.271-5.583,12.125l15.938,63.729
			l-112.25-51.811v-29.514l111.771-60.966c5.167-2.813,7.083-9.292,4.25-14.458c-2.792-5.188-9.292-7.104-14.458-4.25
			l-101.563,55.397V117.338c0-5.896-4.771-10.667-10.667-10.667c-5.896,0-10.667,4.771-10.667,10.667v195.376l-101.563-55.397
			c-5.167-2.854-11.667-0.938-14.458,4.25c-2.833,5.167-0.917,11.646,4.25,14.458l111.771,60.966v29.514l-112.25,51.811
			l15.938-63.729c1.208-4.854-1.104-9.896-5.583-12.125L34.525,288.004l23.583-11.792c2.729-1.375,4.75-3.854,5.542-6.813
			c0.792-2.958,0.25-6.104-1.438-8.646l-31.604-47.417h44.063c5.896,0,10.667-4.771,10.667-10.667v-29l72.083,18.021
			c3.5,0.854,7.208-0.063,9.813-2.521c2.646-2.438,3.875-6.042,3.292-9.583L152.109,69.067l47.188,15.729
			c4.146,1.313,8.75,0.083,11.563-3.292l45.146-54.167l45.146,54.167c2.813,3.375,7.438,4.625,11.563,3.292L359.9,69.067
			l-18.417,110.521c-0.583,3.542,0.646,7.146,3.292,9.583c2.625,2.458,6.333,3.375,9.813,2.521l72.083-18.021v29
			c0,5.896,4.771,10.667,10.667,10.667H481.4l-31.604,47.417c-1.688,2.542-2.229,5.688-1.438,8.646
			c0.792,2.958,2.813,5.438,5.542,6.813l23.583,11.792L368.567,342.463z"/>
	</g>
</g>
<g>
</g>
<g>
</g>
<g>
</g>
<g>
</g>
<g>
</g>
<g>
</g>
<g>
</g>
<g>
</g>
<g>
</g>
<g>
</g>
<g>
</g>
<g>
</g>
<g>
</g>
<g>
</g>
<g>
</g>
</svg>
