<?xml version="1.0" ?><svg viewBox="0 0 64 64" xmlns="http://www.w3.org/2000/svg"><title/><g data-name="14-Bookself" id="_14-Bookself"><path d="M50,4H14A5,5,0,0,0,9,9V51a5,5,0,0,0,4,4.9V58a2,2,0,0,0,2,2h3a2,2,0,0,0,2-2V56H44v2a2,2,0,0,0,2,2h3a2,2,0,0,0,2-2V55.9A5,5,0,0,0,55,51V9A5,5,0,0,0,50,4ZM14,6H50a3,3,0,0,1,3,3V29H51V15H43V29H27V11H13V29H11V9A3,3,0,0,1,14,6ZM49,29H45V17h4ZM19,29H15V13h4Zm6,0H21V13h4ZM18,58H15V56h3Zm-4-4a3,3,0,0,1-3-3V31H31V54H14Zm32,4V56h3v2Zm4-4H33V31H53V51A3,3,0,0,1,50,54Z"/><circle cx="38" cy="43" r="1"/><circle cx="26" cy="43" r="1"/></g></svg>