<?xml version="1.0"?>
<svg xmlns="http://www.w3.org/2000/svg" id="Capa_1" enable-background="new 0 0 512 512" height="512px" viewBox="0 0 512 512" width="512px"><g><path id="_x3C_Group_x3E__8_" d="m506.836 158.5c-3.066-5.312-9.058-8.221-15.129-7.347l-65.952 9.502-6.675-32.615c-1.055-5.154-4.732-9.379-9.691-11.134-4.963-1.755-10.476-.783-14.537 2.56l-64.777 53.326 15.722-94.327c.865-5.189-1.052-10.452-5.052-13.87-3.999-3.417-9.497-4.49-14.487-2.826l-31.521 10.507-24.785-62.784c-2.26-5.728-7.794-9.492-13.952-9.492s-11.691 3.764-13.952 9.492l-24.783 62.784-31.522-10.506c-4.99-1.664-10.488-.592-14.488 2.826s-5.916 8.681-5.051 13.87l15.721 94.327-64.776-53.326c-4.062-3.344-9.578-4.314-14.538-2.56-4.959 1.755-8.637 5.98-9.691 11.134l-6.674 32.615-65.953-9.502c-6.072-.875-12.063 2.035-15.129 7.347-3.067 5.312-2.591 11.956 1.202 16.776l41.206 52.366-24.909 22.087c-3.936 3.49-5.756 8.788-4.796 13.96s4.559 9.464 9.486 11.31l93.432 35.003-30.134 30.134c-3.606 3.607-5.133 8.8-4.053 13.785 1.081 4.985 4.621 9.079 9.398 10.869l145.004 54.316v77.893c0 8.284 6.716 15 15 15s15-6.716 15-15v-77.893l145.004-54.318c4.777-1.789 8.317-5.884 9.397-10.869 1.081-4.985-.445-10.178-4.053-13.785l-30.134-30.134 93.433-35.003c4.926-1.846 8.525-6.137 9.485-11.31s-.859-10.47-4.796-13.96l-24.908-22.087 41.205-52.366c3.794-4.819 4.27-11.463 1.203-16.775zm-72.893 82.204 16.85 14.942-91.925 34.438c-4.776 1.79-8.316 5.884-9.396 10.869-1.081 4.985.445 10.177 4.053 13.784l30.134 30.133-112.659 42.201v-63.043l83.32-55.547c6.894-4.595 8.756-13.908 4.16-20.801-4.595-6.893-13.909-8.755-20.801-4.16l-66.679 44.452v-61.972c0-8.284-6.716-15-15-15s-15 6.716-15 15v61.972l-66.68-44.453c-6.892-4.595-16.205-2.733-20.801 4.16-4.595 6.893-2.732 16.206 4.161 20.801l83.32 55.548v63.043l-112.657-42.201 30.133-30.133c3.607-3.607 5.134-8.8 4.053-13.785s-4.621-9.079-9.397-10.869l-91.924-34.438 16.85-14.942c5.942-5.27 6.747-14.258 1.836-20.499l-26.762-34.01 42.835 6.172c7.862 1.132 15.243-4.058 16.834-11.84l4.515-22.063 76.454 62.939c4.828 3.975 11.617 4.536 17.034 1.41 5.417-3.127 8.324-9.287 7.296-15.456l-18.208-109.247 21.365 7.122c7.559 2.521 15.77-1.312 18.695-8.723l16.048-40.655 16.048 40.654c2.926 7.412 11.138 11.241 18.695 8.723l21.365-7.122-18.208 109.247c-1.028 6.169 1.88 12.329 7.296 15.456 5.418 3.128 12.206 2.565 17.033-1.41l76.454-62.939 4.516 22.064c1.592 7.781 8.99 12.971 16.834 11.839l42.835-6.172-26.762 34.011c-4.911 6.243-4.106 15.23 1.837 20.5z" data-original="#000000" class="active-path" data-old_color="#FAFAFA" fill="#F7F6F6"/></g> </svg>
